<svg width="16" height="17" viewBox="0 0 16 17" fill="none" xmlns="http://www.w3.org/2000/svg">
<g clip-path="url(#clip0_10434_306183)">
<path fill-rule="evenodd" clip-rule="evenodd" d="M11 0.530762C11.2761 0.530762 11.5 0.754619 11.5 1.03076V2.53076H13C13.8284 2.53076 14.5 3.20233 14.5 4.03076V7.03076V14.0308C14.5 14.8592 13.8284 15.5308 13 15.5308H3C2.17157 15.5308 1.5 14.8592 1.5 14.0308V7.03076V4.03076C1.5 3.20233 2.17157 2.53076 3 2.53076H4.5V1.03076C4.5 0.754619 4.72386 0.530762 5 0.530762C5.27614 0.530762 5.5 0.754619 5.5 1.03076V2.53076H10.5V1.03076C10.5 0.754619 10.7239 0.530762 11 0.530762ZM4.5 3.53076V4.03076C4.5 4.3069 4.72386 4.53076 5 4.53076C5.27614 4.53076 5.5 4.3069 5.5 4.03076V3.53076H10.5V4.03076C10.5 4.3069 10.7239 4.53076 11 4.53076C11.2761 4.53076 11.5 4.3069 11.5 4.03076V3.53076H13C13.2761 3.53076 13.5 3.75462 13.5 4.03076V6.53076H2.5V4.03076C2.5 3.75462 2.72386 3.53076 3 3.53076H4.5ZM2.5 7.53076H13.5V14.0308C13.5 14.3069 13.2761 14.5308 13 14.5308H3C2.72386 14.5308 2.5 14.3069 2.5 14.0308V7.53076ZM5 12.0308C5.55228 12.0308 6 11.583 6 11.0308C6 10.4785 5.55228 10.0308 5 10.0308C4.44772 10.0308 4 10.4785 4 11.0308C4 11.583 4.44772 12.0308 5 12.0308ZM7.5 11.0308C7.5 10.7546 7.72386 10.5308 8 10.5308H11C11.2761 10.5308 11.5 10.7546 11.5 11.0308C11.5 11.3069 11.2761 11.5308 11 11.5308H8C7.72386 11.5308 7.5 11.3069 7.5 11.0308Z" fill="#6E778C"/>
</g>
<defs>
<clipPath id="clip0_10434_306183">
<rect width="16" height="16" fill="white" transform="translate(0 0.0307617)"/>
</clipPath>
</defs>
</svg>
