<svg xmlns="http://www.w3.org/2000/svg" width="16" height="16" viewBox="0 0 16 16" fill="none">
<path fill-rule="evenodd" clip-rule="evenodd" d="M11 0.5C11.2761 0.5 11.5 0.723858 11.5 1V2.5H13C13.8284 2.5 14.5 3.17157 14.5 4V7V8.5C14.5 8.77614 14.2761 9 14 9C13.7239 9 13.5 8.77614 13.5 8.5V7.5H2.5V14C2.5 14.2761 2.72386 14.5 3 14.5H7C7.27614 14.5 7.5 14.7239 7.5 15C7.5 15.2761 7.27614 15.5 7 15.5H3C2.17157 15.5 1.5 14.8284 1.5 14V7V4C1.5 3.17157 2.17157 2.5 3 2.5H4.5V1C4.5 0.723858 4.72386 0.5 5 0.5C5.27614 0.5 5.5 0.723858 5.5 1V2.5H10.5V1C10.5 0.723858 10.7239 0.5 11 0.5ZM4.5 3.5V4C4.5 4.27614 4.72386 4.5 5 4.5C5.27614 4.5 5.5 4.27614 5.5 4V3.5H10.5V4C10.5 4.27614 10.7239 4.5 11 4.5C11.2761 4.5 11.5 4.27614 11.5 4V3.5H13C13.2761 3.5 13.5 3.72386 13.5 4V6.5H2.5V4C2.5 3.72386 2.72386 3.5 3 3.5H4.5ZM6 11C6 11.5523 5.55228 12 5 12C4.44772 12 4 11.5523 4 11C4 10.4477 4.44772 10 5 10C5.55228 10 6 10.4477 6 11Z" fill="#777B92"/>
<path fill-rule="evenodd" clip-rule="evenodd" d="M8.5 12.0625C8.5 10.6473 9.64727 9.5 11.0625 9.5C12.4777 9.5 13.625 10.6473 13.625 12.0625C13.625 13.4777 12.4777 14.625 11.0625 14.625C9.64727 14.625 8.5 13.4777 8.5 12.0625ZM11.0625 8.5C9.09499 8.5 7.5 10.095 7.5 12.0625C7.5 14.03 9.09499 15.625 11.0625 15.625C13.03 15.625 14.625 14.03 14.625 12.0625C14.625 10.095 13.03 8.5 11.0625 8.5ZM11.0625 10.25C11.0625 9.97386 10.8386 9.75 10.5625 9.75C10.2864 9.75 10.0625 9.97386 10.0625 10.25V11.5625C10.0625 11.8386 10.2864 12.0625 10.5625 12.0625H11.875C12.1511 12.0625 12.375 11.8386 12.375 11.5625C12.375 11.2864 12.1511 11.0625 11.875 11.0625H11.0625V10.25Z" fill="#777B92"/>
</svg>