<svg width="16" height="16" viewBox="0 0 16 16" fill="none" xmlns="http://www.w3.org/2000/svg">
<path fill-rule="evenodd" clip-rule="evenodd" d="M12.0122 3.77201C12.2074 3.57675 12.2074 3.26017 12.0122 3.0649C11.8169 2.86964 11.5003 2.86964 11.3051 3.0649L7.5378 6.83216L3.77055 3.0649C3.57528 2.86964 3.2587 2.86964 3.06344 3.0649C2.86818 3.26017 2.86818 3.57675 3.06344 3.77201L6.8307 7.53927L3.06344 11.3065C2.86818 11.5018 2.86818 11.8184 3.06344 12.0136C3.2587 12.2089 3.57528 12.2089 3.77055 12.0136L7.5378 8.24637L11.3051 12.0136C11.5003 12.2089 11.8169 12.2089 12.0122 12.0136C12.2074 11.8184 12.2074 11.5018 12.0122 11.3065L8.24491 7.53927L12.0122 3.77201Z" fill="#73768B"/>
</svg>
