<svg width="12" height="10" viewBox="0 0 12 10" fill="none" xmlns="http://www.w3.org/2000/svg">
<path fill-rule="evenodd" clip-rule="evenodd" d="M5.35355 1.35355C5.54882 1.15829 5.54882 0.841709 5.35355 0.646447C5.15829 0.451184 4.84171 0.451184 4.64645 0.646447L0.646447 4.64645C0.451184 4.84171 0.451184 5.15829 0.646447 5.35355L4.64645 9.35355C4.84171 9.54882 5.15829 9.54882 5.35355 9.35355C5.54881 9.15829 5.54881 8.84171 5.35355 8.64645L1.70711 5L5.35355 1.35355ZM11.3536 1.35355C11.5488 1.15829 11.5488 0.841709 11.3536 0.646447C11.1583 0.451184 10.8417 0.451184 10.6464 0.646447L6.64645 4.64645C6.45118 4.84171 6.45118 5.15829 6.64645 5.35355L10.6464 9.35355C10.8417 9.54882 11.1583 9.54882 11.3536 9.35355C11.5488 9.15829 11.5488 8.84171 11.3536 8.64645L7.70711 5L11.3536 1.35355Z" fill="#6E778C"/>
</svg>
