<svg width="16" height="16" viewBox="0 0 16 16" fill="none" xmlns="http://www.w3.org/2000/svg">
<g clip-path="url(#clip0_750_143847)">
<path fill-rule="evenodd" clip-rule="evenodd" d="M7.99998 1.83398C4.59422 1.83398 1.83331 4.5949 1.83331 8.00065C1.83331 11.4064 4.59422 14.1673 7.99998 14.1673C11.4057 14.1673 14.1666 11.4064 14.1666 8.00065C14.1666 4.5949 11.4057 1.83398 7.99998 1.83398ZM0.833313 8.00065C0.833313 4.04261 4.04194 0.833984 7.99998 0.833984C11.958 0.833984 15.1666 4.04261 15.1666 8.00065C15.1666 11.9587 11.958 15.1673 7.99998 15.1673C4.04194 15.1673 0.833313 11.9587 0.833313 8.00065ZM8 5C7.17157 5 6.5 5.67157 6.5 6.5C6.5 6.77614 6.27614 7 6 7C5.72386 7 5.5 6.77614 5.5 6.5C5.5 5.11929 6.61929 4 8 4C9.38071 4 10.5 5.11929 10.5 6.5C10.5 7.66786 9.69968 8.64753 8.6183 8.92283C8.57133 8.93479 8.53418 8.95907 8.5138 8.98105C8.50452 8.99107 8.50112 8.99793 8.50021 9.00007L8.5 9.0006V9.5C8.5 9.77614 8.27614 10 8 10C7.72386 10 7.5 9.77614 7.5 9.5V9C7.5 8.42613 7.95729 8.05921 8.37159 7.95374C9.02056 7.78853 9.5 7.19963 9.5 6.5C9.5 5.67157 8.82843 5 8 5ZM8 12C8.27614 12 8.5 11.7761 8.5 11.5C8.5 11.2239 8.27614 11 8 11C7.72386 11 7.5 11.2239 7.5 11.5C7.5 11.7761 7.72386 12 8 12Z" fill="#6E778C"/>
</g>
<defs>
<clipPath id="clip0_750_143847">
<rect width="16" height="16" fill="white"/>
</clipPath>
</defs>
</svg>
