<svg width="17" height="17" viewBox="0 0 17 17" fill="none" xmlns="http://www.w3.org/2000/svg">
<g clip-path="url(#clip0_1806_59687)">
<path fill-rule="evenodd" clip-rule="evenodd" d="M9.9399 0.661843C9.74464 0.466581 9.42806 0.466581 9.23279 0.661843L0.677239 9.2174C0.481977 9.41266 0.481977 9.72924 0.677239 9.92451L6.12168 15.3689C6.31695 15.5642 6.63353 15.5642 6.82879 15.3689L15.3843 6.81339C15.5796 6.61813 15.5796 6.30155 15.3843 6.10629L9.9399 0.661843ZM6.47524 14.3083L1.7379 9.57095L3.80857 7.50028L8.54591 12.2376L6.47524 14.3083ZM9.25301 11.5305L14.3237 6.45984L9.58635 1.7225L4.51568 6.79317L9.25301 11.5305Z" fill="#6E778C"/>
</g>
<defs>
<clipPath id="clip0_1806_59687">
<rect width="16" height="16" fill="white" transform="translate(0.0307922 0.0153961)"/>
</clipPath>
</defs>
</svg>
