<svg width="17" height="16" viewBox="0 0 17 16" fill="none" xmlns="http://www.w3.org/2000/svg">
  <g clip-path="url(#clip0_3736_152122)">
    <path fill-rule="evenodd" clip-rule="evenodd" d="M2.48353 7.81234C4.00025 4.90565 6.57194 3.5 8.83338 3.5C11.0948 3.5 13.6664 4.90564 15.1832 7.81234C15.2444 7.92965 15.2444 8.07035 15.1832 8.18766C13.6664 11.0944 11.0948 12.5 8.83338 12.5C6.57194 12.5 4.0003 11.0944 2.48353 8.18765C2.42232 8.07034 2.42232 7.92965 2.48353 7.81234ZM8.83338 2.5C6.16084 2.5 3.26745 4.14837 1.59697 7.34973C1.3845 7.7569 1.38451 8.2431 1.59698 8.65027C3.2675 11.8516 6.16084 13.5 8.83338 13.5C11.5059 13.5 14.3993 11.8516 16.0698 8.65028C16.2822 8.2431 16.2822 7.7569 16.0698 7.34972C14.3993 4.14838 11.5059 2.5 8.83338 2.5ZM7.33338 8C7.33338 7.17157 8.00495 6.5 8.83338 6.5C9.6618 6.5 10.3334 7.17157 10.3334 8C10.3334 8.82843 9.6618 9.5 8.83338 9.5C8.00495 9.5 7.33338 8.82843 7.33338 8ZM8.83338 5.5C7.45266 5.5 6.33338 6.61929 6.33338 8C6.33338 9.38071 7.45266 10.5 8.83338 10.5C10.2141 10.5 11.3334 9.38071 11.3334 8C11.3334 6.61929 10.2141 5.5 8.83338 5.5Z" fill="#0079C2"/>
  </g>
  <defs>
    <clipPath id="clip0_3736_152122">
      <rect width="16" height="16" fill="white" transform="translate(0.833374)"/>
    </clipPath>
  </defs>
</svg>
