<svg width="17" height="17" viewBox="0 0 17 17" fill="none" xmlns="http://www.w3.org/2000/svg">
<path fill-rule="evenodd" clip-rule="evenodd" d="M8.03079 1.5154C6.65008 1.5154 5.53079 2.63468 5.53079 4.0154V5.5154H4.03079C3.20237 5.5154 2.53079 6.18697 2.53079 7.0154V13.0154C2.53079 13.8438 3.20237 14.5154 4.03079 14.5154H12.0308C12.8592 14.5154 13.5308 13.8438 13.5308 13.0154V7.0154C13.5308 6.18697 12.8592 5.5154 12.0308 5.5154H10.5308V4.0154C10.5308 2.63468 9.4115 1.5154 8.03079 1.5154ZM9.53079 5.5154V4.0154C9.53079 3.18697 8.85922 2.5154 8.03079 2.5154C7.20236 2.5154 6.53079 3.18697 6.53079 4.0154V5.5154H9.53079ZM6.03079 6.5154H10.0308H12.0308C12.3069 6.5154 12.5308 6.73925 12.5308 7.0154V13.0154C12.5308 13.2915 12.3069 13.5154 12.0308 13.5154H4.03079C3.75465 13.5154 3.53079 13.2915 3.53079 13.0154V7.0154C3.53079 6.73925 3.75465 6.5154 4.03079 6.5154H6.03079ZM8.03079 9.5154C7.75465 9.5154 7.53079 9.73925 7.53079 10.0154C7.53079 10.2915 7.75465 10.5154 8.03079 10.5154C8.30693 10.5154 8.53079 10.2915 8.53079 10.0154C8.53079 9.73925 8.30693 9.5154 8.03079 9.5154ZM6.53079 10.0154C6.53079 9.18697 7.20236 8.5154 8.03079 8.5154C8.85922 8.5154 9.53079 9.18697 9.53079 10.0154C9.53079 10.8438 8.85922 11.5154 8.03079 11.5154C7.20236 11.5154 6.53079 10.8438 6.53079 10.0154Z" fill="#6E778C"/>
</svg>
