<svg width="17" height="17" viewBox="0 0 17 17" fill="none" xmlns="http://www.w3.org/2000/svg">
<g clip-path="url(#clip0_1155_229286)">
<path fill-rule="evenodd" clip-rule="evenodd" d="M8.03076 0.515396C8.21234 0.515396 8.37965 0.613842 8.46784 0.772575L10.8425 5.04696L15.086 5.51845C15.277 5.53968 15.439 5.66852 15.5026 5.84989C15.5662 6.03126 15.5202 6.23304 15.3843 6.36895L12.0735 9.67973L13.0211 14.4173C13.0593 14.6084 12.983 14.8043 12.8256 14.9192C12.6681 15.0342 12.4583 15.0471 12.2879 14.9525L8.03076 12.5874L3.77358 14.9525C3.60322 15.0471 3.39338 15.0342 3.23597 14.9192C3.07855 14.8043 3.00225 14.6084 3.04047 14.4173L3.98799 9.67973L0.677207 6.36895C0.541299 6.23304 0.495326 6.03126 0.558946 5.84989C0.622567 5.66852 0.784518 5.53968 0.975545 5.51845L5.21902 5.04696L7.59368 0.772575C7.68187 0.613842 7.84918 0.515396 8.03076 0.515396ZM8.03076 2.04496L5.96784 5.75822C5.88921 5.89976 5.7469 5.99446 5.58598 6.01234L2.11993 6.39745L4.88431 9.16184C5.00252 9.28005 5.05384 9.44952 5.02105 9.61345L4.2331 13.5532L7.78794 11.5783C7.93895 11.4944 8.12257 11.4944 8.27358 11.5783L11.8284 13.5532L11.0405 9.61345C11.0077 9.44952 11.059 9.28005 11.1772 9.16184L13.9416 6.39745L10.4755 6.01234C10.3146 5.99446 10.1723 5.89976 10.0937 5.75822L8.03076 2.04496Z" fill="#6E778C"/>
</g>
<defs>
<clipPath id="clip0_1155_229286">
<rect width="16" height="16" fill="white" transform="translate(0.0307617 0.0153961)"/>
</clipPath>
</defs>
</svg>
