<svg width="16" height="16" viewBox="0 0 16 16" fill="none" xmlns="http://www.w3.org/2000/svg">
<path fill-rule="evenodd" clip-rule="evenodd" d="M14.3915 2.31565C14.5867 2.12039 14.5867 1.80381 14.3915 1.60854C14.1962 1.41328 13.8796 1.41328 13.6844 1.60854L8.00001 7.29291L2.31565 1.60854C2.12039 1.41328 1.80381 1.41328 1.60854 1.60854C1.41328 1.80381 1.41328 2.12039 1.60854 2.31565L7.29291 8.00001L1.60854 13.6844C1.41328 13.8796 1.41328 14.1962 1.60854 14.3915C1.80381 14.5867 2.12039 14.5867 2.31565 14.3915L8.00001 8.70712L13.6844 14.3915C13.8796 14.5867 14.1962 14.5867 14.3915 14.3915C14.5867 14.1962 14.5867 13.8796 14.3915 13.6844L8.70712 8.00001L14.3915 2.31565Z" fill="#6E778C"/>
</svg>
